<?xml version="1.0" encoding="windows-1252"?>
<!-- Generator: Adobe Illustrator 19.0.0, SVG Export Plug-In . SVG Version: 6.00 Build 0)  -->
<svg version="1.1" id="Layer_1" xmlns="http://www.w3.org/2000/svg" xmlns:xlink="http://www.w3.org/1999/xlink" x="0px" y="0px" viewBox="0 0 496.2 496.2" style="enable-background:new 0 0 496.2 496.2;" xml:space="preserve">
<path style="fill:#A3D5E0;" d="M496.2,248.1C496.2,111.1,385.1,0,248.1,0S0,111.1,0,248.1s111.1,248.1,248.1,248.1  S496.2,385.1,496.2,248.1z"/>
<g>
	<path style="fill:#1E130F;" d="M248.1,354.1c-38.7,0-101.8-1.8-101.8-1.8s-28.2-112.2,1.8-166.2c7.2-12.9,18.5-28.7,18.5-37.5   l81.5-1V354.1z"/>
	<path style="fill:#1E130F;" d="M248.3,354.1c38.7,0,101.8-1.8,101.8-1.8s28.2-112.2-1.8-166.2c-7.2-12.9-18.5-28.7-18.5-37.5   l-81.5-1V354.1z"/>
</g>
<path style="fill:#334D5C;" d="M247.8,333.4c-77.2,0-139.1,22.1-146.4,49.3c-3.3,12.2-7,35.2-10.1,57.5  c42.7,34.9,97.4,55.9,156.9,55.9s114.1-21,156.9-55.9c-3.2-22.3-6.9-45.4-10.1-57.5C387.5,355.5,324.9,333.4,247.8,333.4z"/>
<g>
	<path style="fill:#172023;" d="M180.2,339.5c-2.2,0.4-4.4,0.9-6.6,1.4c-2.6,0.6-5.2,1.2-7.7,1.8c-1.7,0.4-3.3,0.9-5,1.3   c-2.6,0.7-5.1,1.5-7.6,2.2c-1.6,0.5-3.2,1-4.8,1.6c-2.6,0.9-5,1.8-7.4,2.7c-1.6,0.6-3.1,1.3-4.6,1.9c-2.5,1.1-4.9,2.2-7.2,3.3   c-2.1,1-4,2.1-5.9,3.2l5.1,13.8l56.3-20.7L180.2,339.5z"/>
	<path style="fill:#172023;" d="M366.8,355.8c-2.3-1.1-4.7-2.3-7.2-3.3c-1.5-0.6-3-1.3-4.6-1.9c-2.4-0.9-4.9-1.8-7.4-2.7   c-1.6-0.5-3.2-1.1-4.8-1.6c-2.5-0.8-5-1.5-7.6-2.2c-1.6-0.4-3.3-0.9-5-1.3c-2.5-0.6-5.1-1.2-7.7-1.8c-2.2-0.5-4.3-0.9-6.6-1.4   l-4.6,12.5l56.3,20.7l5-13.7C370.8,357.9,368.8,356.9,366.8,355.8z"/>
</g>
<g>
	<circle style="fill:#AF9604;" cx="153.5" cy="354.9" r="5"/>
	<circle style="fill:#AF9604;" cx="342.8" cy="354.8" r="5"/>
</g>
<path style="fill:#E4E9ED;" d="M248.1,496.2c0,0,89.2-162.8-0.4-162.8S248.1,496.2,248.1,496.2z"/>
<polygon style="fill:#1E2021;" points="248.1,360.5 232.3,368.4 248.1,394 263.8,368.4 "/>
<polygon style="fill:#C7C8C9;" points="210.2,335.4 247.8,363.5 286,335.4 287.9,322.3 247.9,317 208.3,322.3 "/>
<path style="fill:#8E502E;" d="M287,282.1h-77.8c12.1,36.6,1,53.3,1,53.3s16.8,28.1,37.6,28.1s38.2-28.1,38.2-28.1  S274.9,318.7,287,282.1z"/>
<g>
	<path style="fill:#9B5C32;" d="M327.9,175.2c0-92.4-35.7-113.6-79.8-113.6c-44,0-79.8,21.2-79.8,113.6c0,31.3,5.6,55.8,14,74.7   c18.4,41.6,50.3,56.1,65.8,56.1s47.3-14.5,65.8-56.1C322.3,231,327.9,206.5,327.9,175.2z"/>
	<path style="fill:#9B5C32;" d="M160.7,207.7c4.3,25.2,9.6,26.3,17.3,25l-8.1-54.8C162.2,179.3,156.4,182.6,160.7,207.7z"/>
	<path style="fill:#9B5C32;" d="M326.5,178l-8.1,54.8c7.6,1.3,13,0.1,17.3-25C339.9,182.6,334.1,179.3,326.5,178z"/>
</g>
<path style="fill:#1E130F;" d="M330.8,179.1c0-92.4-25.3-117.5-82.7-117.5s-82.7,25.1-82.7,117.5l9.5-7.9  c45.8,0,84.9-26.9,113.2-52.3C288.1,161.8,330.8,179.1,330.8,179.1z"/>
<path style="fill:#191919;" d="M247.9,40.4c-60.8,0-113.4,37.5-113,38c3.4,4.4,27.4,30.7,27.4,30.7l1.2,15.6c0,0-0.2,14.5,13.9,14.5  s31.6,4,70.6,4s56.3-4,70.6-4c14.4,0,14.2-14.9,14.2-14.9l0.9-15.2c6.9-6.8,23.6-25.8,27.2-30.4C361.5,78.1,308.8,40.4,247.9,40.4z"/>
<path style="fill:#2872BC;" d="M333.9,109.1l0.1-0.1c-14.5-6.1-46.2-17-85.9-17c-39.8,0-71.4,11-86,17.1c0.1,0.1,0.2,0.1,0.2,0.1  l1.1,15.6c15.1-8.3,46-16.7,84.7-16.7s69.6,8.3,84.7,16.7L333.9,109.1z"/>
<path style="fill:#F7EEC1;" d="M269.4,68.3c2.9-4.3-0.1-11.7-7-9.3c-6.6,2.4-14-2.7-14.3-2.9l0,0l0,0l0,0l0,0l0,0l0,0l0,0l0,0  c-0.3,0.2-7.6,5.2-14.3,2.9c-6.9-2.4-9.9,4.9-7,9.3c3.2,4.7,3.7,7,3.7,7.9c0,2.5-9.2,7.8-2,19.5c2.7,4.3,4.5,3.7,14.5,4.7  c0,0,4.5,1.6,5.1,4.6v-1.4v1.4c0.6-3,5.1-4.6,5.1-4.6c10-1,11.8-0.4,14.5-4.7c7.2-11.7-2-17-2-19.5  C265.7,75.4,266.2,73.1,269.4,68.3z"/>
<path style="fill:#D3C624;" d="M260.9,76.6c-0.2-0.6-0.7-1.1-1.4-1.2l-6.8-1l-3.1-6.2c-0.6-1.2-2.5-1.2-3.1,0l-3.1,6.2l-6.8,1  c-0.7,0.1-1.2,0.6-1.4,1.2s0,1.3,0.4,1.8l4.9,4.8l-1.2,6.8c-0.1,0.7,0.2,1.3,0.7,1.7c0.5,0.4,1.3,0.4,1.8,0.1l6.1-3.2l6.1,3.2  c0.3,0.1,0.5,0.2,0.8,0.2c0.4,0,0.7-0.1,1-0.3c0.5-0.4,0.8-1.1,0.7-1.7l-1.2-6.8l4.9-4.8C260.9,77.9,261.1,77.2,260.9,76.6z"/>
<path style="fill:#844A2C;" d="M274.8,263.8c0,0-14.2,9.6-26.7,9.6s-26.7-9.6-26.7-9.6c0-1.4,11.3-5.3,16.1-6  c3-0.5,10.6,2.5,10.6,2.5s7.5-2.9,10.4-2.5C263.4,258.5,274.8,263.8,274.8,263.8z"/>
<path style="fill:#7A4229;" d="M274.8,263.8c0,0-14.2,13.5-26.7,13.5s-26.7-13.5-26.7-13.5s6.5,1.5,19.6,0.7c2.2-0.1,5.1,1.6,7,1.6  c1.7,0,4.2-1.8,6.1-1.7C267.9,265.2,274.8,263.8,274.8,263.8z"/>
<g>
	<path style="fill:#1E130F;" d="M174.8,183.1c-0.4-2.7-0.5-5.2-0.4-7.1c0.1-2.9,0.5-4.7,0.5-4.7l-9.4,3.5c0,1.4,0,2.9,0,4.3   c0,0,1-0.3,2.8-0.9c-0.1,0-0.2,0.1-0.3,0.1c1.3,2.2,2.9,5.6,4.5,10.5C172.4,188.8,176.1,191.5,174.8,183.1z"/>
	<path style="fill:#1E130F;" d="M321.9,176c0.1,2,0,4.4-0.4,7.1c-1.3,8.4,2.3,5.7,2.3,5.7c1.5-5,3.2-8.3,4.4-10.5   c1.6,0.6,2.5,0.8,2.5,0.8c0-1.5,0-2.9,0-4.3l-9.3-3.5C321.4,171.3,321.8,173.1,321.9,176"/>
</g>
<g>
	<polygon style="fill:#D4D6D8;" points="305.8,337.8 287.9,322.3 248.1,363.9 284.7,374.1  "/>
	<polygon style="fill:#D4D6D8;" points="190.4,337.8 208.3,322.3 248.1,363.9 211.5,374.1  "/>
</g>
<g>
	<path style="fill:#2A3F49;" d="M197.7,335.8L197.7,335.8L197.7,335.8z"/>
	<path style="fill:#2A3F49;" d="M196.6,332.4l1.1,3.4l50.4,154.1v6.2c-6.7,0-13.3-0.3-19.8-0.8l-63.7-109.2l19.5-48.5L196.6,332.4z"/>
	<path style="fill:#2A3F49;" d="M311.5,337.4L311.5,337.4L311.5,337.4L311.5,337.4z"/>
	<path style="fill:#2A3F49;" d="M304.9,336.6c0.1,0,0.2,0,0.3,0C305.1,336.6,305,336.6,304.9,336.6z"/>
	<path style="fill:#2A3F49;" d="M298.5,335.9L298.5,335.9L298.5,335.9z"/>
	<path style="fill:#2A3F49;" d="M312.1,337.6l-0.6-0.2l0,0l0,0l-11.9-5l-1.1,3.5l-50.4,154v6.2c6.7,0,13.3-0.3,19.8-0.8l63.7-109.2   L312.1,337.6z"/>
</g>
<path style="fill:#1E2021;" d="M248.1,489.9l19.8-60.5c-0.3-3.7-0.6-7.1-0.8-10c-2-22.6-15.4-38.5-15.4-38.5h-3.6v0.7v-0.7h-3.5  c0,0-13.4,15.9-15.4,38.5c-0.3,2.9-0.5,6.3-0.8,10.1L248.1,489.9L248.1,489.9z"/>
<g>
</g>
<g>
</g>
<g>
</g>
<g>
</g>
<g>
</g>
<g>
</g>
<g>
</g>
<g>
</g>
<g>
</g>
<g>
</g>
<g>
</g>
<g>
</g>
<g>
</g>
<g>
</g>
<g>
</g>
</svg>